<mxfile host="app.diagrams.net" modified="2021-07-14T09:13:32.473Z" agent="5.0 (Macintosh; Intel Mac OS X 10_14_6) AppleWebKit/537.36 (KHTML, like Gecko) Chrome/91.0.4472.114 Safari/537.36" etag="ZwbigkgTvd9k212tBLmu" version="14.8.6" type="github">
  <diagram id="qdUMMqdy9mQdvQtbhTyN" name="Page-1">
    <mxGraphModel dx="925" dy="511" grid="1" gridSize="10" guides="1" tooltips="1" connect="1" arrows="1" fold="1" page="1" pageScale="1" pageWidth="827" pageHeight="1169" math="0" shadow="0">
      <root>
        <mxCell id="0" />
        <mxCell id="1" parent="0" />
        <mxCell id="wUjLrVzw0HKnTURF9Jyx-1" value="users" style="rounded=1;whiteSpace=wrap;html=1;fontFamily=Times New Roman;" vertex="1" parent="1">
          <mxGeometry x="130" y="100" width="120" height="60" as="geometry" />
        </mxCell>
        <mxCell id="wUjLrVzw0HKnTURF9Jyx-4" value="" style="endArrow=ERzeroToMany;html=1;fontFamily=Times New Roman;endFill=1;exitX=1;exitY=0.5;exitDx=0;exitDy=0;startArrow=ERmandOne;startFill=0;entryX=0;entryY=0.5;entryDx=0;entryDy=0;" edge="1" parent="1" source="wUjLrVzw0HKnTURF9Jyx-1" target="wUjLrVzw0HKnTURF9Jyx-5">
          <mxGeometry width="50" height="50" relative="1" as="geometry">
            <mxPoint x="300" y="180" as="sourcePoint" />
            <mxPoint x="310" y="130" as="targetPoint" />
          </mxGeometry>
        </mxCell>
        <mxCell id="wUjLrVzw0HKnTURF9Jyx-5" value="test_passenges" style="rounded=1;whiteSpace=wrap;html=1;fontFamily=Times New Roman;" vertex="1" parent="1">
          <mxGeometry x="300" y="160" width="120" height="60" as="geometry" />
        </mxCell>
        <mxCell id="wUjLrVzw0HKnTURF9Jyx-7" value="" style="endArrow=ERzeroToMany;html=1;fontFamily=Times New Roman;endFill=1;startArrow=ERmandOne;startFill=0;entryX=1;entryY=0.5;entryDx=0;entryDy=0;exitX=0;exitY=0.5;exitDx=0;exitDy=0;" edge="1" parent="1" source="wUjLrVzw0HKnTURF9Jyx-8" target="wUjLrVzw0HKnTURF9Jyx-5">
          <mxGeometry width="50" height="50" relative="1" as="geometry">
            <mxPoint x="550" y="130" as="sourcePoint" />
            <mxPoint x="430" y="130" as="targetPoint" />
          </mxGeometry>
        </mxCell>
        <mxCell id="wUjLrVzw0HKnTURF9Jyx-8" value="tests" style="rounded=1;whiteSpace=wrap;html=1;fontFamily=Times New Roman;" vertex="1" parent="1">
          <mxGeometry x="470" y="100" width="120" height="60" as="geometry" />
        </mxCell>
        <mxCell id="wUjLrVzw0HKnTURF9Jyx-9" value="" style="shape=umlActor;verticalLabelPosition=bottom;verticalAlign=top;html=1;outlineConnect=0;fontFamily=Times New Roman;" vertex="1" parent="1">
          <mxGeometry x="157" y="75.5" width="68" height="125" as="geometry" />
        </mxCell>
        <mxCell id="wUjLrVzw0HKnTURF9Jyx-11" value="" style="endArrow=ERzeroToMany;html=1;fontFamily=Times New Roman;endFill=1;startArrow=ERmandOne;startFill=0;entryX=1;entryY=0.5;entryDx=0;entryDy=0;exitX=0;exitY=0.5;exitDx=0;exitDy=0;" edge="1" parent="1">
          <mxGeometry width="50" height="50" relative="1" as="geometry">
            <mxPoint x="630" y="129.41" as="sourcePoint" />
            <mxPoint x="590" y="129.41" as="targetPoint" />
          </mxGeometry>
        </mxCell>
        <mxCell id="wUjLrVzw0HKnTURF9Jyx-15" value="categories" style="rounded=1;whiteSpace=wrap;html=1;fontFamily=Times New Roman;" vertex="1" parent="1">
          <mxGeometry x="630" y="100" width="120" height="60" as="geometry" />
        </mxCell>
        <mxCell id="wUjLrVzw0HKnTURF9Jyx-16" value="" style="endArrow=ERzeroToMany;html=1;fontFamily=Times New Roman;endFill=1;startArrow=ERmandOne;startFill=0;exitX=0;exitY=0.5;exitDx=0;exitDy=0;" edge="1" parent="1" target="wUjLrVzw0HKnTURF9Jyx-17">
          <mxGeometry width="50" height="50" relative="1" as="geometry">
            <mxPoint x="530" y="159.99999999999997" as="sourcePoint" />
            <mxPoint x="530" y="220" as="targetPoint" />
          </mxGeometry>
        </mxCell>
        <mxCell id="wUjLrVzw0HKnTURF9Jyx-17" value="questions" style="rounded=1;whiteSpace=wrap;html=1;fontFamily=Times New Roman;" vertex="1" parent="1">
          <mxGeometry x="470" y="270" width="120" height="60" as="geometry" />
        </mxCell>
        <mxCell id="wUjLrVzw0HKnTURF9Jyx-18" value="" style="endArrow=ERzeroToMany;html=1;fontFamily=Times New Roman;endFill=1;exitX=1;exitY=1;exitDx=0;exitDy=0;startArrow=ERmandOne;startFill=0;entryX=0;entryY=0;entryDx=0;entryDy=0;" edge="1" parent="1" source="wUjLrVzw0HKnTURF9Jyx-1" target="wUjLrVzw0HKnTURF9Jyx-19">
          <mxGeometry width="50" height="50" relative="1" as="geometry">
            <mxPoint x="280" y="239.41" as="sourcePoint" />
            <mxPoint x="340" y="239.41" as="targetPoint" />
          </mxGeometry>
        </mxCell>
        <mxCell id="wUjLrVzw0HKnTURF9Jyx-19" value="answers" style="rounded=1;whiteSpace=wrap;html=1;fontFamily=Times New Roman;" vertex="1" parent="1">
          <mxGeometry x="250" y="270" width="120" height="60" as="geometry" />
        </mxCell>
        <mxCell id="wUjLrVzw0HKnTURF9Jyx-20" value="" style="endArrow=ERzeroToMany;html=1;fontFamily=Times New Roman;endFill=1;exitX=0;exitY=0.5;exitDx=0;exitDy=0;startArrow=ERmandOne;startFill=0;entryX=1;entryY=0.5;entryDx=0;entryDy=0;" edge="1" parent="1" source="wUjLrVzw0HKnTURF9Jyx-17" target="wUjLrVzw0HKnTURF9Jyx-19">
          <mxGeometry width="50" height="50" relative="1" as="geometry">
            <mxPoint x="470" y="240" as="sourcePoint" />
            <mxPoint x="490" y="300" as="targetPoint" />
          </mxGeometry>
        </mxCell>
        <mxCell id="wUjLrVzw0HKnTURF9Jyx-28" value="" style="endArrow=ERzeroToMany;html=1;fontFamily=Times New Roman;endFill=1;exitX=1;exitY=0.5;exitDx=0;exitDy=0;startArrow=ERmandOne;startFill=0;entryX=0;entryY=0.5;entryDx=0;entryDy=0;" edge="1" parent="1" target="wUjLrVzw0HKnTURF9Jyx-29" source="wUjLrVzw0HKnTURF9Jyx-1">
          <mxGeometry width="50" height="50" relative="1" as="geometry">
            <mxPoint x="250" y="60" as="sourcePoint" />
            <mxPoint x="310" y="60" as="targetPoint" />
          </mxGeometry>
        </mxCell>
        <mxCell id="wUjLrVzw0HKnTURF9Jyx-29" value="developer_test_passenges" style="rounded=1;whiteSpace=wrap;html=1;fontFamily=Times New Roman;" vertex="1" parent="1">
          <mxGeometry x="290" y="60" width="140" height="60" as="geometry" />
        </mxCell>
        <mxCell id="wUjLrVzw0HKnTURF9Jyx-30" value="" style="endArrow=ERzeroToMany;html=1;fontFamily=Times New Roman;endFill=1;startArrow=ERmandOne;startFill=0;entryX=1;entryY=0.5;entryDx=0;entryDy=0;exitX=0;exitY=0.5;exitDx=0;exitDy=0;" edge="1" parent="1" target="wUjLrVzw0HKnTURF9Jyx-29" source="wUjLrVzw0HKnTURF9Jyx-8">
          <mxGeometry width="50" height="50" relative="1" as="geometry">
            <mxPoint x="470" y="60" as="sourcePoint" />
            <mxPoint x="430" y="60" as="targetPoint" />
          </mxGeometry>
        </mxCell>
      </root>
    </mxGraphModel>
  </diagram>
</mxfile>
